<svg id="Layer_1" data-name="Layer 1" xmlns="http://www.w3.org/2000/svg" width="59.26" height="49.53" viewBox="0 0 59.26 49.53">
  <defs>
    <style>
      .cls-1 {
        opacity: 0.9;
      }

      .cls-2 {
        fill: #6d6e71;
      }

      .cls-3 {
        fill: #b7d433;
      }
    </style>
  </defs>
  <g>
    <g class="cls-1">
      <path class="cls-2" d="M19.24,7.48,28.77,28a3.46,3.46,0,0,1-5.2,4.23L5.46,18.7A9.17,9.17,0,1,1,19.24,7.48Z"/>
    </g>
    <g class="cls-1">
      <path class="cls-3" d="M53.08,18.7,35,32.18A3.46,3.46,0,0,1,29.77,28L39.29,7.48A9.17,9.17,0,1,1,53.08,18.7Z"/>
    </g>
    <g class="cls-1">
      <path class="cls-2" d="M13.73,36.44l11.86-8.71a2.31,2.31,0,0,1,3.46,2.82L22.93,43.92a6.12,6.12,0,1,1-9.2-7.48Z"/>
    </g>
    <g class="cls-1">
      <path class="cls-3" d="M35.85,43.92,29.72,30.55a2.31,2.31,0,0,1,3.47-2.82L45,36.44a6.12,6.12,0,1,1-9.19,7.48Z"/>
    </g>
  </g>
</svg>
